<?xml version="1.0" encoding="utf-8"?>
<!-- Generator: Adobe Illustrator 21.1.0, SVG Export Plug-In . SVG Version: 6.00 Build 0)  -->
<svg version="1.1" id="Layer_1" xmlns="http://www.w3.org/2000/svg" xmlns:xlink="http://www.w3.org/1999/xlink" x="0px" y="0px"
	 viewBox="0 0 612 792" style="enable-background:new 0 0 612 792;" xml:space="preserve">
<style type="text/css">
	.st0{fill-rule:evenodd;clip-rule:evenodd;fill:#FFFFFF;}
	.st1{fill-rule:evenodd;clip-rule:evenodd;fill:#00678F;}
	.st2{fill-rule:evenodd;clip-rule:evenodd;fill:#E38D1A;}
</style>
<g>
	<polygon class="st0" points="209,300 401.8,300 401.8,492.8 209,492.8 209,300 	"/>
	<path class="st1" d="M217.5,428.2h5.8v-23l9.1,20c1,2.4,2.5,3.3,5.4,3.3c2.9,0,4.2-0.9,5.3-3.3l9-20v23h5.8v-23
		c0-2.2-0.9-3.3-2.8-3.9c-4.4-1.3-7.4-0.2-8.7,2.8l-8.9,19.8l-8.6-19.8c-1.3-3-4.3-4.1-8.7-2.8c-1.8,0.6-2.7,1.7-2.7,3.9V428.2
		L217.5,428.2z"/>
	<path class="st1" d="M262.7,409.5h5.8v12.6c0,0.7,0.2,2.3,3.4,2.4c1.7,0,12.6,0,12.7,0v-15.1h5.8c0,0,0,20.6,0,20.7
		c0,5.1-6.3,6.2-9.2,6.2h-18.4v-3.9c0,0,18.4,0,18.4,0c3.7-0.4,3.3-2.3,3.3-2.9V428h-12.4c-5.8,0-9.5-2.6-9.5-5.5
		C262.7,422.3,262.8,409.6,262.7,409.5L262.7,409.5z"/>
	<path class="st1" d="M388.1,394.9c-3.6-0.1-6.3,0.3-8.7,1.2c-0.7,0.3-1.7,0.3-1.8,1.1c0.4,0.4,0.4,0.9,0.7,1.4
		c0.5,0.9,1.5,2.1,2.3,2.7c0.9,0.7,1.9,1.4,2.9,2.1c1.7,1.1,3.7,1.7,5.4,2.8c1,0.6,2,1.4,2.9,2.1c0.5,0.4,0.8,0.9,1.4,1.2
		c0,0,0-0.1,0-0.1c-0.3-0.4-0.4-1-0.7-1.4c-0.4-0.4-0.9-0.8-1.3-1.3c-1.3-1.7-2.9-3.3-4.6-4.5c-1.4-1-4.6-2.3-5.1-4c0,0,0,0-0.1-0.1
		c1-0.1,2.1-0.4,3.1-0.7c1.5-0.4,2.9-0.3,4.5-0.7c0.7-0.2,1.4-0.4,2.1-0.6c0-0.1,0-0.3,0-0.4c-0.8-0.8-1.4-1.9-2.2-2.6
		c-2.3-2-4.8-3.9-7.4-5.5c-1.4-0.9-3.2-1.5-4.6-2.2c-0.5-0.3-1.4-0.4-1.7-0.8c-0.8-1-1.2-2.3-1.8-3.4c-1.3-2.5-2.5-5.2-3.7-7.8
		c-0.8-1.7-1.3-3.5-2.3-5.1c-4.6-7.6-9.6-12.2-17.3-16.7c-1.7-0.9-3.6-1.3-5.7-1.8c-1.1,0-2.2-0.1-3.3-0.2c-0.7-0.3-1.4-1.2-2.1-1.6
		c-2.5-1.6-9.1-5.1-11-0.5c-1.2,2.9,1.8,5.8,2.8,7.2c0.8,1,1.7,2.2,2.3,3.3c0.3,0.8,0.4,1.6,0.7,2.4c0.7,2,1.4,4.1,2.3,6
		c0.5,0.9,1,1.9,1.7,2.8c0.4,0.5,1,0.7,1.1,1.5c-0.6,0.9-0.7,2.2-1,3.3c-1.6,5-1,11.3,1.3,15c0.7,1.1,2.4,3.6,4.7,2.6
		c2-0.8,1.6-3.3,2.1-5.6c0.1-0.5,0-0.9,0.3-1.2c0,0,0,0.1,0,0.1c0.6,1.2,1.2,2.5,1.8,3.7c1.4,2.2,3.8,4.5,5.8,6
		c1.1,0.8,1.9,2.2,3.3,2.7c0,0,0-0.1,0-0.1c0,0,0,0-0.1,0c-0.3-0.4-0.7-0.6-1-0.9c-0.8-0.8-1.7-1.8-2.3-2.7c-1.9-2.5-3.5-5.3-5-8.1
		c-0.7-1.4-1.3-2.9-1.9-4.3c-0.3-0.5-0.3-1.3-0.7-1.6c-0.7,1-1.7,1.8-2.1,3c-0.8,1.9-0.9,4.3-1.2,6.7c-0.2,0-0.1,0-0.2,0.1
		c-1.4-0.4-1.9-1.8-2.5-3.1c-1.3-3.2-1.6-8.3-0.4-11.9c0.3-0.9,1.7-3.9,1.1-4.8c-0.3-0.8-1.2-1.3-1.7-2c-0.6-0.8-1.2-1.9-1.6-2.9
		c-1.1-2.5-1.6-5.3-2.8-7.8c-0.5-1.2-1.5-2.4-2.2-3.4c-0.8-1.2-1.8-2.1-2.5-3.5c-0.2-0.5-0.5-1.3-0.2-1.8c0.1-0.4,0.3-0.5,0.6-0.6
		c0.6-0.5,2.2,0.1,2.8,0.4c1.7,0.7,3,1.3,4.4,2.2c0.6,0.4,1.3,1.3,2.1,1.5c0.3,0,0.6,0,0.9,0c1.4,0.3,3,0.1,4.4,0.5
		c2.4,0.8,4.5,1.9,6.4,3.1c5.8,3.7,10.7,9,13.9,15.3c0.5,1,0.8,2,1.2,3c0.9,2.2,2.1,4.4,3,6.6c0.9,2.1,1.8,4.2,3.2,6
		c0.7,0.9,3.3,1.4,4.6,1.9c0.9,0.4,2.3,0.8,3.1,1.2c1.5,0.9,3,2,4.5,3C385.7,392.9,387.9,394,388.1,394.9L388.1,394.9z"/>
	<path class="st1" d="M342.6,356.1c-0.8,0-1.3,0.1-1.8,0.2c0,0,0,0,0,0.1c0,0,0,0,0.1,0c0.4,0.7,1,1.2,1.4,1.8
		c0.4,0.7,0.7,1.4,1,2.1c0,0,0.1-0.1,0.1-0.1c0.6-0.4,0.9-1.2,0.9-2.2c-0.3-0.3-0.3-0.6-0.5-0.9
		C343.5,356.7,342.9,356.5,342.6,356.1L342.6,356.1z"/>
	<path class="st2" d="M294.9,428.2h16.8c2,0,3.8-0.4,5.4-1.1c2.5-1.2,3.7-2.7,3.7-4.8V418c0-1.7-1.4-3.2-4.1-4.3
		c-1.4-0.5-3.2-0.8-5-0.8h-7c-2.4,0-3.5-0.7-3.8-2.3c0-0.2,0-0.4,0-0.5v-2.6c0-0.1,0-0.3,0-0.5c0.3-1.2,0.9-1.5,3-1.7
		c0.2,0,0.4,0,0.5,0H321v-3.9h-16.3c-2.4,0-3.6,0.1-4.7,0.5c-3.4,1.1-5,2.8-5,5.8v3.4c0,2.6,2.9,4.9,7.9,5.4c0.5,0,1.1,0,1.7,0h6
		c0.2,0,0.4,0,0.6,0c1.8,0.2,2.6,0.5,3.2,1.2c0.4,0.4,0.4,0.7,0.4,1.1v3.4c0,0.4-0.3,0.9-0.8,1.4s-1.4,0.8-2.5,0.8
		c-0.2,0-0.4,0-0.6,0h-16.1V428.2L294.9,428.2z"/>
	<path class="st2" d="M357.1,421.5c0,4,3,6.2,9,6.6c0.6,0,1.1,0.1,1.7,0.1h15.2v-3.9h-15.3c-3.4,0-4.7-0.8-4.7-2.9v-20.1h-5.8V421.5
		L357.1,421.5z"/>
	<path class="st2" d="M324.5,421.7v-13.8c0-3.5,2.5-5.7,7.4-6.3c0.5,0,1.1-0.1,1.6-0.1h11.1c0.6,0,1.1,0,1.7,0.1
		c4.9,0.7,7.3,2.8,7.3,6.3v13.8c0,2.9-1,4.4-3.4,5.4l5.7,5.2H349l-4.6-4.2l-4.7,0.3h-6.2c-1,0-2.2-0.1-3.4-0.4
		C326.3,426.8,324.5,424.9,324.5,421.7L324.5,421.7z M330.8,421.3c0,0.2,0.1,0.4,0.1,0.6c0.3,1.6,1.8,2.5,4.1,2.5h5.3l-4.8-4.4h6.7
		l4.2,3.8c0.8-0.4,1.3-1.1,1.5-1.9c0-0.2,0-0.4,0-0.6v-13.3c0-0.2,0-0.4,0-0.5c-0.3-1.5-1.8-2.4-4.1-2.4h-8.8
		c-2.6,0-4.3,1.1-4.3,2.9V421.3L330.8,421.3z"/>
	<path class="st2" d="M385.6,428.3h0.8V425h1.1v-0.7h-3.1v0.7h1.2V428.3L385.6,428.3z M392.1,428.3h0.8v-3.9h-1.2l-1,2.7l-1.1-2.7
		h-1.2v3.9h0.8v-3h0l1.1,3h0.6l1.1-3l0,0V428.3L392.1,428.3z"/>
</g>
</svg>
